<svg id="visual" viewBox="0 0 900 300" width="900" height="300" xmlns="http://www.w3.org/2000/svg" xmlns:xlink="http://www.w3.org/1999/xlink" version="1.1"><rect x="0" y="0" width="900" height="300" fill="#FFFFFF"></rect><path d="M557 300L550.7 292.8C544.3 285.7 531.7 271.3 513.7 257C495.7 242.7 472.3 228.3 484.5 214C496.7 199.7 544.3 185.3 559.7 171.2C575 157 558 143 541.5 128.8C525 114.7 509 100.3 510 86C511 71.7 529 57.3 537.5 43C546 28.7 545 14.3 544.5 7.2L544 0L900 0L900 7.2C900 14.3 900 28.7 900 43C900 57.3 900 71.7 900 86C900 100.3 900 114.7 900 128.8C900 143 900 157 900 171.2C900 185.3 900 199.7 900 214C900 228.3 900 242.7 900 257C900 271.3 900 285.7 900 292.8L900 300Z" fill="#fa7268"></path><path d="M547 300L564 292.8C581 285.7 615 271.3 628 257C641 242.7 633 228.3 630.5 214C628 199.7 631 185.3 615.2 171.2C599.3 157 564.7 143 563.2 128.8C561.7 114.7 593.3 100.3 601.2 86C609 71.7 593 57.3 595.8 43C598.7 28.7 620.3 14.3 631.2 7.2L642 0L900 0L900 7.2C900 14.3 900 28.7 900 43C900 57.3 900 71.7 900 86C900 100.3 900 114.7 900 128.8C900 143 900 157 900 171.2C900 185.3 900 199.7 900 214C900 228.3 900 242.7 900 257C900 271.3 900 285.7 900 292.8L900 300Z" fill="#f16367"></path><path d="M710 300L693.7 292.8C677.3 285.7 644.7 271.3 625.5 257C606.3 242.7 600.7 228.3 608.2 214C615.7 199.7 636.3 185.3 647.7 171.2C659 157 661 143 661.5 128.8C662 114.7 661 100.3 661.8 86C662.7 71.7 665.3 57.3 667.2 43C669 28.7 670 14.3 670.5 7.2L671 0L900 0L900 7.2C900 14.3 900 28.7 900 43C900 57.3 900 71.7 900 86C900 100.3 900 114.7 900 128.8C900 143 900 157 900 171.2C900 185.3 900 199.7 900 214C900 228.3 900 242.7 900 257C900 271.3 900 285.7 900 292.8L900 300Z" fill="#e85467"></path><path d="M652 300L666.3 292.8C680.7 285.7 709.3 271.3 714.5 257C719.7 242.7 701.3 228.3 696.8 214C692.3 199.7 701.7 185.3 705.3 171.2C709 157 707 143 702.7 128.8C698.3 114.7 691.7 100.3 697 86C702.3 71.7 719.7 57.3 717.8 43C716 28.7 695 14.3 684.5 7.2L674 0L900 0L900 7.2C900 14.3 900 28.7 900 43C900 57.3 900 71.7 900 86C900 100.3 900 114.7 900 128.8C900 143 900 157 900 171.2C900 185.3 900 199.7 900 214C900 228.3 900 242.7 900 257C900 271.3 900 285.7 900 292.8L900 300Z" fill="#de4467"></path><path d="M758 300L756.5 292.8C755 285.7 752 271.3 746.2 257C740.3 242.7 731.7 228.3 731.3 214C731 199.7 739 185.3 749.3 171.2C759.7 157 772.3 143 771 128.8C769.7 114.7 754.3 100.3 749.3 86C744.3 71.7 749.7 57.3 758.2 43C766.7 28.7 778.3 14.3 784.2 7.2L790 0L900 0L900 7.2C900 14.3 900 28.7 900 43C900 57.3 900 71.7 900 86C900 100.3 900 114.7 900 128.8C900 143 900 157 900 171.2C900 185.3 900 199.7 900 214C900 228.3 900 242.7 900 257C900 271.3 900 285.7 900 292.8L900 300Z" fill="#d23467"></path><path d="M853 300L852.3 292.8C851.7 285.7 850.3 271.3 848.3 257C846.3 242.7 843.7 228.3 835.5 214C827.3 199.7 813.7 185.3 805.8 171.2C798 157 796 143 804.7 128.8C813.3 114.7 832.7 100.3 838.3 86C844 71.7 836 57.3 828 43C820 28.7 812 14.3 808 7.2L804 0L900 0L900 7.2C900 14.3 900 28.7 900 43C900 57.3 900 71.7 900 86C900 100.3 900 114.7 900 128.8C900 143 900 157 900 171.2C900 185.3 900 199.7 900 214C900 228.3 900 242.7 900 257C900 271.3 900 285.7 900 292.8L900 300Z" fill="#c62368"></path></svg>