<svg id="visual" viewBox="0 0 900 200" width="900" height="200" xmlns="http://www.w3.org/2000/svg" xmlns:xlink="http://www.w3.org/1999/xlink" version="1.1"><rect x="0" y="0" width="900" height="200" fill="#FFFFFF"></rect><path d="M386 0L337 0L337 18L214 18L214 36L399 36L399 55L359 55L359 73L377 73L377 91L258 91L258 109L347 109L347 127L295 127L295 145L338 145L338 164L227 164L227 182L339 182L339 200L0 200L0 182L0 182L0 164L0 164L0 145L0 145L0 127L0 127L0 109L0 109L0 91L0 91L0 73L0 73L0 55L0 55L0 36L0 36L0 18L0 18L0 0L0 0Z" fill="#ff6f61"></path><path d="M229 0L260 0L260 18L295 18L295 36L230 36L230 55L288 55L288 73L127 73L127 91L172 91L172 109L176 109L176 127L205 127L205 145L274 145L274 164L247 164L247 182L224 182L224 200L0 200L0 182L0 182L0 164L0 164L0 145L0 145L0 127L0 127L0 109L0 109L0 91L0 91L0 73L0 73L0 55L0 55L0 36L0 36L0 18L0 18L0 0L0 0Z" fill="#e64964"></path><path d="M148 0L99 0L99 18L156 18L156 36L47 36L47 55L148 55L148 73L127 73L127 91L69 91L69 109L108 109L108 127L113 127L113 145L138 145L138 164L116 164L116 182L104 182L104 200L0 200L0 182L0 182L0 164L0 164L0 145L0 145L0 127L0 127L0 109L0 109L0 91L0 91L0 73L0 73L0 55L0 55L0 36L0 36L0 18L0 18L0 0L0 0Z" fill="#c62368"></path></svg>