<?xml version="1.0" standalone="no"?>
<svg xmlns:xlink="http://www.w3.org/1999/xlink" id="wave" style="transform:rotate(0deg); transition: 0.3s" viewBox="0 0 1440 100" version="1.1" xmlns="http://www.w3.org/2000/svg"><defs><linearGradient id="sw-gradient-0" x1="0" x2="0" y1="1" y2="0"><stop stop-color="rgba(24, 22, 22, 1)" offset="0%"/><stop stop-color="rgba(61.782, 61.782, 61.782, 1)" offset="100%"/></linearGradient></defs><path style="transform:translate(0, 0px); opacity:1" fill="url(#sw-gradient-0)" d="M0,50L80,56.7C160,63,320,77,480,68.3C640,60,800,30,960,30C1120,30,1280,60,1440,73.3C1600,87,1760,83,1920,83.3C2080,83,2240,87,2400,80C2560,73,2720,57,2880,46.7C3040,37,3200,33,3360,28.3C3520,23,3680,17,3840,21.7C4000,27,4160,43,4320,43.3C4480,43,4640,27,4800,31.7C4960,37,5120,63,5280,75C5440,87,5600,83,5760,81.7C5920,80,6080,80,6240,76.7C6400,73,6560,67,6720,65C6880,63,7040,67,7200,63.3C7360,60,7520,50,7680,43.3C7840,37,8000,33,8160,36.7C8320,40,8480,50,8640,60C8800,70,8960,80,9120,71.7C9280,63,9440,37,9600,36.7C9760,37,9920,63,10080,65C10240,67,10400,43,10560,28.3C10720,13,10880,7,11040,18.3C11200,30,11360,60,11440,75L11520,90L11520,100L11440,100C11360,100,11200,100,11040,100C10880,100,10720,100,10560,100C10400,100,10240,100,10080,100C9920,100,9760,100,9600,100C9440,100,9280,100,9120,100C8960,100,8800,100,8640,100C8480,100,8320,100,8160,100C8000,100,7840,100,7680,100C7520,100,7360,100,7200,100C7040,100,6880,100,6720,100C6560,100,6400,100,6240,100C6080,100,5920,100,5760,100C5600,100,5440,100,5280,100C5120,100,4960,100,4800,100C4640,100,4480,100,4320,100C4160,100,4000,100,3840,100C3680,100,3520,100,3360,100C3200,100,3040,100,2880,100C2720,100,2560,100,2400,100C2240,100,2080,100,1920,100C1760,100,1600,100,1440,100C1280,100,1120,100,960,100C800,100,640,100,480,100C320,100,160,100,80,100L0,100Z"/></svg>