<?xml version="1.0" standalone="no"?>
<svg xmlns:xlink="http://www.w3.org/1999/xlink" id="wave" style="transform:rotate(0deg); transition: 0.3s" viewBox="0 0 1440 130" version="1.1" xmlns="http://www.w3.org/2000/svg"><defs><linearGradient id="sw-gradient-0" x1="0" x2="0" y1="1" y2="0"><stop stop-color="rgba(24, 22, 22, 1)" offset="0%"/><stop stop-color="rgba(61.782, 61.782, 61.782, 1)" offset="100%"/></linearGradient></defs><path style="transform:translate(0, 0px); opacity:1" fill="url(#sw-gradient-0)" d="M0,65L80,73.7C160,82,320,100,480,88.8C640,78,800,39,960,39C1120,39,1280,78,1440,95.3C1600,113,1760,108,1920,108.3C2080,108,2240,113,2400,104C2560,95,2720,74,2880,60.7C3040,48,3200,43,3360,36.8C3520,30,3680,22,3840,28.2C4000,35,4160,56,4320,56.3C4480,56,4640,35,4800,41.2C4960,48,5120,82,5280,97.5C5440,113,5600,108,5760,106.2C5920,104,6080,104,6240,99.7C6400,95,6560,87,6720,84.5C6880,82,7040,87,7200,82.3C7360,78,7520,65,7680,56.3C7840,48,8000,43,8160,47.7C8320,52,8480,65,8640,78C8800,91,8960,104,9120,93.2C9280,82,9440,48,9600,47.7C9760,48,9920,82,10080,84.5C10240,87,10400,56,10560,36.8C10720,17,10880,9,11040,23.8C11200,39,11360,78,11440,97.5L11520,117L11520,130L11440,130C11360,130,11200,130,11040,130C10880,130,10720,130,10560,130C10400,130,10240,130,10080,130C9920,130,9760,130,9600,130C9440,130,9280,130,9120,130C8960,130,8800,130,8640,130C8480,130,8320,130,8160,130C8000,130,7840,130,7680,130C7520,130,7360,130,7200,130C7040,130,6880,130,6720,130C6560,130,6400,130,6240,130C6080,130,5920,130,5760,130C5600,130,5440,130,5280,130C5120,130,4960,130,4800,130C4640,130,4480,130,4320,130C4160,130,4000,130,3840,130C3680,130,3520,130,3360,130C3200,130,3040,130,2880,130C2720,130,2560,130,2400,130C2240,130,2080,130,1920,130C1760,130,1600,130,1440,130C1280,130,1120,130,960,130C800,130,640,130,480,130C320,130,160,130,80,130L0,130Z"/></svg>